<svg width="75" height="10" viewBox="0 0 75 10" fill="#6c88dd" xmlns="http://www.w3.org/2000/svg">
<g clip-path="url(#clip0_5_48)">
<rect width="75" height="10" fill="#6c88dd"/>
<path d="M2.24917 9.73162L1.92234 5.99589L0.677094 6.10483L0.622622 5.48221L4.35835 5.15538L4.41282 5.778L3.16758 5.88694L3.49441 9.62267L2.24917 9.73162ZM7.01226 6.80535L7.63488 6.75088L7.68935 7.3735L7.06673 7.42797L7.23015 9.29584L5.9849 9.40478L5.71254 6.29167L6.95778 6.18273L7.01226 6.80535ZM9.44827 5.96484L9.50274 6.58746L7.63488 6.75088L7.58041 6.12826L9.44827 5.96484ZM11.8843 5.12433L11.8298 4.50171L13.0751 4.39276L13.1295 5.01538L11.8843 5.12433ZM10.9659 8.969L10.9114 8.34638L12.1566 8.23744L11.9932 6.36957L11.3706 6.42405L11.3161 5.80142L13.184 5.63801L13.4019 8.12849L14.6471 8.01955L14.7016 8.64217L10.9659 8.969ZM15.9468 8.53323L15.8924 7.9106L15.2698 7.96508L15.1063 6.09721L15.729 6.04274L15.6745 5.42012L19.4102 5.09328L19.4647 5.7159L16.3516 5.98827L16.515 7.85613L19.6281 7.58377L19.6826 8.20639L15.9468 8.53323ZM20.3052 8.15192L19.9239 3.79357L21.1691 3.68462L21.387 6.17511L22.6323 6.06616L22.5778 5.44354L23.2004 5.38907L23.1459 4.76645L24.3912 4.6575L24.4457 5.28013L23.823 5.3346L23.8775 5.95722L23.2549 6.01169L23.3094 6.63431L23.932 6.57984L23.9865 7.20246L24.6091 7.14799L24.6636 7.77061L23.4183 7.87956L23.3638 7.25694L22.7412 7.31141L22.6867 6.68879L21.4415 6.79773L21.5504 8.04297L20.3052 8.15192ZM25.9633 8.28429L25.9088 7.66167L28.3993 7.44378L28.3448 6.82116L25.8543 7.03905L25.7999 6.41642L25.1772 6.4709L25.0138 4.60303L26.2591 4.49409L26.4225 6.36195L28.2903 6.19854L28.1269 4.33067L29.3722 4.22173L29.6445 7.33483L29.0219 7.38931L29.0764 8.01193L25.9633 8.28429ZM30.9442 7.84851L30.8898 7.22589L31.5124 7.17142L31.4034 5.92617L32.6487 5.81723L32.7576 7.06247L32.135 7.11694L32.1895 7.73957L30.9442 7.84851ZM40.2291 6.4088L39.8478 2.05045L43.5835 1.72362L43.638 2.34624L44.2606 2.29177L44.424 4.15963L43.1788 4.26858L43.2333 4.8912L43.8559 4.83673L43.9104 5.45935L44.533 5.40488L44.5874 6.0275L42.7196 6.19091L42.6651 5.56829L42.0425 5.62277L41.988 5.00014L41.3654 5.05462L41.4743 6.29986L40.2291 6.4088ZM41.3109 4.43199L42.5562 4.32305L42.5017 3.70043L43.1243 3.64596L43.0154 2.40071L41.1475 2.56413L41.3109 4.43199ZM45.8327 5.91855L45.7782 5.29593L45.1556 5.3504L44.9922 3.48254L45.6148 3.42807L45.5603 2.80544L48.6734 2.53308L48.7279 3.1557L49.3505 3.10123L49.4595 4.34648L46.3464 4.61884L46.4008 5.24146L48.8913 5.02357L48.9458 5.64619L45.8327 5.91855ZM46.2919 3.99622L48.1598 3.8328L48.1053 3.21018L46.2374 3.37359L46.2919 3.99622ZM50.8137 5.48277L50.7592 4.86015L50.1366 4.91463L50.0821 4.292L50.7047 4.23753L50.6502 3.61491L53.1407 3.39702L53.0863 2.7744L50.5958 2.99229L50.5413 2.36967L53.6544 2.0973L53.7089 2.71993L54.3315 2.66545L54.5494 5.15594L50.8137 5.48277ZM51.3818 4.80568L53.2497 4.64226L53.1952 4.01964L51.3273 4.18306L51.3818 4.80568ZM55.7946 5.047L55.7402 4.42437L56.9854 4.31543L56.713 1.20232L56.0904 1.25679L56.036 0.634172L57.9038 0.470754L58.2307 4.20648L59.4759 4.09754L59.5304 4.72016L55.7946 5.047ZM60.7756 4.61122L60.7211 3.9886L61.9664 3.87965L61.694 0.766542L61.0714 0.821014L61.0169 0.198393L62.8848 0.0349758L63.2116 3.77071L64.4569 3.66176L64.5113 4.28438L60.7756 4.61122ZM65.8111 4.79806L65.7566 4.17544L68.2471 3.95755L68.1926 3.33493L65.7021 3.55282L65.6476 2.93019L65.025 2.98467L64.8616 1.1168L66.1068 1.00786L66.2703 2.87572L68.1381 2.71231L67.9747 0.84444L69.22 0.735495L69.4923 3.8486L68.8697 3.90308L68.9242 4.5257L65.8111 4.79806ZM71.3602 3.68519L71.2512 2.43994L72.4965 2.331L72.6054 3.57624L71.3602 3.68519Z" fill="#D2A7A7"/>
<path d="M2.24917 9.73162L2.14955 9.74033L2.15827 9.83995L2.25789 9.83124L2.24917 9.73162ZM1.92234 5.99589L2.02196 5.98717L2.01324 5.88755L1.91362 5.89627L1.92234 5.99589ZM0.677094 6.10483L0.577475 6.11355L0.58619 6.21317L0.68581 6.20445L0.677094 6.10483ZM0.622622 5.48221L0.613906 5.38259L0.514287 5.39131L0.523002 5.49093L0.622622 5.48221ZM4.35835 5.15538L4.45797 5.14666L4.44926 5.04704L4.34964 5.05576L4.35835 5.15538ZM4.41282 5.778L4.42154 5.87762L4.52116 5.8689L4.51244 5.76928L4.41282 5.778ZM3.16758 5.88694L3.15887 5.78732L3.05925 5.79604L3.06796 5.89566L3.16758 5.88694ZM3.49441 9.62267L3.50313 9.72229L3.60275 9.71358L3.59403 9.61396L3.49441 9.62267ZM2.34879 9.7229L2.02196 5.98717L1.82272 6.0046L2.14955 9.74033L2.34879 9.7229ZM1.91362 5.89627L0.668378 6.00521L0.68581 6.20445L1.93105 6.09551L1.91362 5.89627ZM0.776714 6.09612L0.722241 5.47349L0.523002 5.49093L0.577475 6.11355L0.776714 6.09612ZM0.631337 5.58183L4.36707 5.255L4.34964 5.05576L0.613906 5.38259L0.631337 5.58183ZM4.25873 5.16409L4.3132 5.78671L4.51244 5.76928L4.45797 5.14666L4.25873 5.16409ZM4.40411 5.67838L3.15887 5.78732L3.1763 5.98656L4.42154 5.87762L4.40411 5.67838ZM3.06796 5.89566L3.3948 9.63139L3.59403 9.61396L3.2672 5.87823L3.06796 5.89566ZM3.4857 9.52305L2.24046 9.632L2.25789 9.83124L3.50313 9.72229L3.4857 9.52305ZM7.01226 6.80535L6.91264 6.81407L6.92135 6.91369L7.02097 6.90497L7.01226 6.80535ZM7.63488 6.75088L7.7345 6.74216L7.72578 6.64254L7.62616 6.65126L7.63488 6.75088ZM7.68935 7.3735L7.69807 7.47312L7.79768 7.4644L7.78897 7.36479L7.68935 7.3735ZM7.06673 7.42797L7.05801 7.32835L6.95839 7.33707L6.96711 7.43669L7.06673 7.42797ZM7.23015 9.29584L7.23886 9.39546L7.33848 9.38674L7.32976 9.28712L7.23015 9.29584ZM5.9849 9.40478L5.88528 9.4135L5.894 9.51312L5.99362 9.5044L5.9849 9.40478ZM5.71254 6.29167L5.70382 6.19205L5.60421 6.20077L5.61292 6.30039L5.71254 6.29167ZM6.95778 6.18273L7.0574 6.17401L7.04869 6.07439L6.94907 6.08311L6.95778 6.18273ZM9.44827 5.96484L9.54789 5.95612L9.53917 5.85651L9.43955 5.86522L9.44827 5.96484ZM9.50274 6.58746L9.51146 6.68708L9.61108 6.67837L9.60236 6.57875L9.50274 6.58746ZM7.63488 6.75088L7.53526 6.75959L7.54397 6.85921L7.64359 6.8505L7.63488 6.75088ZM7.58041 6.12826L7.57169 6.02864L7.47207 6.03735L7.48079 6.13697L7.58041 6.12826ZM7.02097 6.90497L7.64359 6.8505L7.62616 6.65126L7.00354 6.70573L7.02097 6.90497ZM7.53526 6.75959L7.58973 7.38222L7.78897 7.36479L7.7345 6.74216L7.53526 6.75959ZM7.68063 7.27388L7.05801 7.32835L7.07544 7.52759L7.69807 7.47312L7.68063 7.27388ZM6.96711 7.43669L7.13053 9.30455L7.32976 9.28712L7.16635 7.41926L6.96711 7.43669ZM7.22143 9.19622L5.97619 9.30516L5.99362 9.5044L7.23886 9.39546L7.22143 9.19622ZM6.08452 9.39607L5.81216 6.28296L5.61292 6.30039L5.88528 9.4135L6.08452 9.39607ZM5.72126 6.39129L6.9665 6.28235L6.94907 6.08311L5.70382 6.19205L5.72126 6.39129ZM6.85816 6.19145L6.91264 6.81407L7.11188 6.79664L7.0574 6.17401L6.85816 6.19145ZM9.34865 5.97356L9.40312 6.59618L9.60236 6.57875L9.54789 5.95612L9.34865 5.97356ZM9.49403 6.48784L7.62616 6.65126L7.64359 6.8505L9.51146 6.68708L9.49403 6.48784ZM7.7345 6.74216L7.68002 6.11954L7.48079 6.13697L7.53526 6.75959L7.7345 6.74216ZM7.58912 6.22788L9.45699 6.06446L9.43955 5.86522L7.57169 6.02864L7.58912 6.22788ZM11.8843 5.12433L11.7847 5.13304L11.7934 5.23266L11.893 5.22395L11.8843 5.12433ZM11.8298 4.50171L11.8211 4.40209L11.7215 4.4108L11.7302 4.51042L11.8298 4.50171ZM13.0751 4.39276L13.1747 4.38405L13.166 4.28443L13.0663 4.29314L13.0751 4.39276ZM13.1295 5.01538L13.1382 5.115L13.2379 5.10629L13.2291 5.00667L13.1295 5.01538ZM10.9659 8.969L10.8663 8.97772L10.875 9.07734L10.9746 9.06862L10.9659 8.969ZM10.9114 8.34638L10.9027 8.24676L10.8031 8.25548L10.8118 8.3551L10.9114 8.34638ZM12.1566 8.23744L12.1654 8.33706L12.265 8.32834L12.2563 8.22872L12.1566 8.23744ZM11.9932 6.36957L12.0928 6.36086L12.0841 6.26124L11.9845 6.26995L11.9932 6.36957ZM11.3706 6.42405L11.271 6.43276L11.2797 6.53238L11.3793 6.52366L11.3706 6.42405ZM11.3161 5.80142L11.3074 5.7018L11.2078 5.71052L11.2165 5.81014L11.3161 5.80142ZM13.184 5.63801L13.2836 5.62929L13.2749 5.52967L13.1753 5.53839L13.184 5.63801ZM13.4019 8.12849L13.3023 8.13721L13.311 8.23683L13.4106 8.22811L13.4019 8.12849ZM14.6471 8.01955L14.7468 8.01083L14.738 7.91121L14.6384 7.91993L14.6471 8.01955ZM14.7016 8.64217L14.7103 8.74179L14.8099 8.73307L14.8012 8.63345L14.7016 8.64217ZM11.9839 5.11561L11.9294 4.49299L11.7302 4.51042L11.7847 5.13304L11.9839 5.11561ZM11.8385 4.60133L13.0838 4.49238L13.0663 4.29314L11.8211 4.40209L11.8385 4.60133ZM12.9754 4.40148L13.0299 5.0241L13.2291 5.00667L13.1747 4.38405L12.9754 4.40148ZM13.1208 4.91576L11.8756 5.02471L11.893 5.22395L13.1382 5.115L13.1208 4.91576ZM11.0655 8.96029L11.011 8.33767L10.8118 8.3551L10.8663 8.97772L11.0655 8.96029ZM10.9201 8.446L12.1654 8.33706L12.1479 8.13782L10.9027 8.24676L10.9201 8.446ZM12.2563 8.22872L12.0928 6.36086L11.8936 6.37829L12.057 8.24615L12.2563 8.22872ZM11.9845 6.26995L11.3619 6.32443L11.3793 6.52366L12.0019 6.46919L11.9845 6.26995ZM11.4702 6.41533L11.4158 5.79271L11.2165 5.81014L11.271 6.43276L11.4702 6.41533ZM11.3249 5.90104L13.1927 5.73763L13.1753 5.53839L11.3074 5.7018L11.3249 5.90104ZM13.0844 5.64672L13.3023 8.13721L13.5015 8.11978L13.2836 5.62929L13.0844 5.64672ZM13.4106 8.22811L14.6558 8.11917L14.6384 7.91993L13.3932 8.02887L13.4106 8.22811ZM14.5475 8.02826L14.602 8.65089L14.8012 8.63345L14.7468 8.01083L14.5475 8.02826ZM14.6929 8.54255L10.9572 8.86938L10.9746 9.06862L14.7103 8.74179L14.6929 8.54255ZM15.9468 8.53323L15.8472 8.54194L15.8559 8.64156L15.9556 8.63284L15.9468 8.53323ZM15.8924 7.9106L15.992 7.90189L15.9833 7.80227L15.8837 7.81098L15.8924 7.9106ZM15.2698 7.96508L15.1701 7.97379L15.1789 8.07341L15.2785 8.0647L15.2698 7.96508ZM15.1063 6.09721L15.0976 5.99759L14.998 6.00631L15.0067 6.10593L15.1063 6.09721ZM15.729 6.04274L15.7377 6.14236L15.8373 6.13364L15.8286 6.03402L15.729 6.04274ZM15.6745 5.42012L15.6658 5.3205L15.5662 5.32921L15.5749 5.42883L15.6745 5.42012ZM19.4102 5.09328L19.5098 5.08457L19.5011 4.98495L19.4015 4.99366L19.4102 5.09328ZM19.4647 5.7159L19.4734 5.81552L19.573 5.80681L19.5643 5.70719L19.4647 5.7159ZM16.3516 5.98827L16.3429 5.88865L16.2432 5.89736L16.252 5.99698L16.3516 5.98827ZM16.515 7.85613L16.4154 7.86485L16.4241 7.96447L16.5237 7.95575L16.515 7.85613ZM19.6281 7.58377L19.7277 7.57505L19.719 7.47543L19.6194 7.48415L19.6281 7.58377ZM19.6826 8.20639L19.6913 8.30601L19.7909 8.2973L19.7822 8.19768L19.6826 8.20639ZM16.0465 8.52451L15.992 7.90189L15.7928 7.91932L15.8472 8.54194L16.0465 8.52451ZM15.8837 7.81098L15.261 7.86546L15.2785 8.0647L15.9011 8.01022L15.8837 7.81098ZM15.3694 7.95636L15.206 6.0885L15.0067 6.10593L15.1701 7.97379L15.3694 7.95636ZM15.1151 6.19683L15.7377 6.14236L15.7202 5.94312L15.0976 5.99759L15.1151 6.19683ZM15.8286 6.03402L15.7741 5.4114L15.5749 5.42883L15.6293 6.05145L15.8286 6.03402ZM15.6832 5.51974L19.4189 5.1929L19.4015 4.99366L15.6658 5.3205L15.6832 5.51974ZM19.3106 5.102L19.3651 5.72462L19.5643 5.70719L19.5098 5.08457L19.3106 5.102ZM19.456 5.61629L16.3429 5.88865L16.3603 6.08789L19.4734 5.81552L19.456 5.61629ZM16.252 5.99698L16.4154 7.86485L16.6146 7.84742L16.4512 5.97955L16.252 5.99698ZM16.5237 7.95575L19.6368 7.68339L19.6194 7.48415L16.5063 7.75651L16.5237 7.95575ZM19.5285 7.59249L19.583 8.21511L19.7822 8.19768L19.7277 7.57505L19.5285 7.59249ZM19.6739 8.10677L15.9381 8.43361L15.9556 8.63284L19.6913 8.30601L19.6739 8.10677ZM20.3052 8.15192L20.2056 8.16063L20.2143 8.26025L20.3139 8.25154L20.3052 8.15192ZM19.9239 3.79357L19.9152 3.69395L19.8156 3.70266L19.8243 3.80228L19.9239 3.79357ZM21.1691 3.68462L21.2688 3.67591L21.26 3.57629L21.1604 3.585L21.1691 3.68462ZM21.387 6.17511L21.2874 6.18382L21.2961 6.28344L21.3957 6.27473L21.387 6.17511ZM22.6323 6.06616L22.641 6.16578L22.7406 6.15707L22.7319 6.05745L22.6323 6.06616ZM22.5778 5.44354L22.5691 5.34392L22.4695 5.35264L22.4782 5.45226L22.5778 5.44354ZM23.2004 5.38907L23.2091 5.48869L23.3088 5.47997L23.3 5.38036L23.2004 5.38907ZM23.1459 4.76645L23.1372 4.66683L23.0376 4.67554L23.0463 4.77516L23.1459 4.76645ZM24.3912 4.6575L24.4908 4.64879L24.4821 4.54917L24.3825 4.55788L24.3912 4.6575ZM24.4457 5.28013L24.4544 5.37975L24.554 5.37103L24.5453 5.27141L24.4457 5.28013ZM23.823 5.3346L23.8143 5.23498L23.7147 5.24369L23.7234 5.34331L23.823 5.3346ZM23.8775 5.95722L23.8862 6.05684L23.9858 6.04812L23.9771 5.9485L23.8775 5.95722ZM23.2549 6.01169L23.2462 5.91207L23.1466 5.92079L23.1553 6.02041L23.2549 6.01169ZM23.3094 6.63431L23.2097 6.64303L23.2185 6.74265L23.3181 6.73393L23.3094 6.63431ZM23.932 6.57984L24.0316 6.57113L24.0229 6.47151L23.9233 6.48022L23.932 6.57984ZM23.9865 7.20246L23.8868 7.21118L23.8956 7.3108L23.9952 7.30208L23.9865 7.20246ZM24.6091 7.14799L24.7087 7.13928L24.7 7.03966L24.6004 7.04837L24.6091 7.14799ZM24.6636 7.77061L24.6723 7.87023L24.7719 7.86152L24.7632 7.7619L24.6636 7.77061ZM23.4183 7.87956L23.3187 7.88827L23.3274 7.98789L23.427 7.97918L23.4183 7.87956ZM23.3638 7.25694L23.4635 7.24822L23.4547 7.1486L23.3551 7.15732L23.3638 7.25694ZM22.7412 7.31141L22.6416 7.32012L22.6503 7.41974L22.7499 7.41103L22.7412 7.31141ZM22.6867 6.68879L22.7864 6.68007L22.7776 6.58045L22.678 6.58917L22.6867 6.68879ZM21.4415 6.79773L21.4328 6.69811L21.3332 6.70683L21.3419 6.80645L21.4415 6.79773ZM21.5504 8.04297L21.5592 8.14259L21.6588 8.13388L21.6501 8.03426L21.5504 8.04297ZM20.4048 8.1432L20.0235 3.78485L19.8243 3.80228L20.2056 8.16063L20.4048 8.1432ZM19.9326 3.89319L21.1779 3.78424L21.1604 3.585L19.9152 3.69395L19.9326 3.89319ZM21.0695 3.69334L21.2874 6.18382L21.4866 6.16639L21.2688 3.67591L21.0695 3.69334ZM21.3957 6.27473L22.641 6.16578L22.6236 5.96655L21.3783 6.07549L21.3957 6.27473ZM22.7319 6.05745L22.6774 5.43483L22.4782 5.45226L22.5327 6.07488L22.7319 6.05745ZM22.5865 5.54316L23.2091 5.48869L23.1917 5.28945L22.5691 5.34392L22.5865 5.54316ZM23.3 5.38036L23.2456 4.75773L23.0463 4.77516L23.1008 5.39779L23.3 5.38036ZM23.1547 4.86607L24.3999 4.75712L24.3825 4.55788L23.1372 4.66683L23.1547 4.86607ZM24.2916 4.66622L24.346 5.28884L24.5453 5.27141L24.4908 4.64879L24.2916 4.66622ZM24.4369 5.18051L23.8143 5.23498L23.8318 5.43422L24.4544 5.37975L24.4369 5.18051ZM23.7234 5.34331L23.7779 5.96594L23.9771 5.9485L23.9227 5.32588L23.7234 5.34331ZM23.8688 5.8576L23.2462 5.91207L23.2636 6.11131L23.8862 6.05684L23.8688 5.8576ZM23.1553 6.02041L23.2097 6.64303L23.409 6.6256L23.3545 6.00298L23.1553 6.02041ZM23.3181 6.73393L23.9407 6.67946L23.9233 6.48022L23.3006 6.53469L23.3181 6.73393ZM23.8324 6.58856L23.8868 7.21118L24.0861 7.19375L24.0316 6.57113L23.8324 6.58856ZM23.9952 7.30208L24.6178 7.24761L24.6004 7.04837L23.9777 7.10284L23.9952 7.30208ZM24.5095 7.15671L24.5639 7.77933L24.7632 7.7619L24.7087 7.13928L24.5095 7.15671ZM24.6548 7.67099L23.4096 7.77994L23.427 7.97918L24.6723 7.87023L24.6548 7.67099ZM23.5179 7.87084L23.4635 7.24822L23.2642 7.26565L23.3187 7.88827L23.5179 7.87084ZM23.3551 7.15732L22.7325 7.21179L22.7499 7.41103L23.3726 7.35656L23.3551 7.15732ZM22.8408 7.30269L22.7864 6.68007L22.5871 6.6975L22.6416 7.32012L22.8408 7.30269ZM22.678 6.58917L21.4328 6.69811L21.4502 6.89735L22.6955 6.78841L22.678 6.58917ZM21.3419 6.80645L21.4508 8.05169L21.6501 8.03426L21.5411 6.78902L21.3419 6.80645ZM21.5417 7.94336L20.2965 8.0523L20.3139 8.25154L21.5592 8.14259L21.5417 7.94336ZM25.9633 8.28429L25.8636 8.29301L25.8724 8.39262L25.972 8.38391L25.9633 8.28429ZM25.9088 7.66167L25.9001 7.56205L25.8005 7.57076L25.8092 7.67038L25.9088 7.66167ZM28.3993 7.44378L28.408 7.5434L28.5076 7.53468L28.4989 7.43506L28.3993 7.44378ZM28.3448 6.82116L28.4444 6.81244L28.4357 6.71282L28.3361 6.72154L28.3448 6.82116ZM25.8543 7.03905L25.7547 7.04776L25.7634 7.14738L25.863 7.13867L25.8543 7.03905ZM25.7999 6.41642L25.8995 6.40771L25.8908 6.30809L25.7911 6.31681L25.7999 6.41642ZM25.1772 6.4709L25.0776 6.47961L25.0863 6.57923L25.1859 6.57052L25.1772 6.4709ZM25.0138 4.60303L25.0051 4.50341L24.9055 4.51213L24.9142 4.61175L25.0138 4.60303ZM26.2591 4.49409L26.3587 4.48537L26.35 4.38575L26.2503 4.39447L26.2591 4.49409ZM26.4225 6.36195L26.3229 6.37067L26.3316 6.47029L26.4312 6.46157L26.4225 6.36195ZM28.2903 6.19854L28.2991 6.29815L28.3987 6.28944L28.39 6.18982L28.2903 6.19854ZM28.1269 4.33067L28.1182 4.23105L28.0186 4.23977L28.0273 4.33939L28.1269 4.33067ZM29.3722 4.22173L29.4718 4.21301L29.4631 4.11339L29.3634 4.12211L29.3722 4.22173ZM29.6445 7.33483L29.6532 7.43445L29.7529 7.42574L29.7441 7.32612L29.6445 7.33483ZM29.0219 7.38931L29.0132 7.28969L28.9136 7.2984L28.9223 7.39802L29.0219 7.38931ZM29.0764 8.01193L29.0851 8.11155L29.1847 8.10283L29.176 8.00321L29.0764 8.01193ZM26.0629 8.27557L26.0084 7.65295L25.8092 7.67038L25.8636 8.29301L26.0629 8.27557ZM25.9175 7.76129L28.408 7.5434L28.3906 7.34416L25.9001 7.56205L25.9175 7.76129ZM28.4989 7.43506L28.4444 6.81244L28.2452 6.82987L28.2997 7.45249L28.4989 7.43506ZM28.3361 6.72154L25.8456 6.93943L25.863 7.13867L28.3535 6.92078L28.3361 6.72154ZM25.9539 7.03033L25.8995 6.40771L25.7002 6.42514L25.7547 7.04776L25.9539 7.03033ZM25.7911 6.31681L25.1685 6.37128L25.1859 6.57052L25.8086 6.51604L25.7911 6.31681ZM25.2768 6.46218L25.1134 4.59432L24.9142 4.61175L25.0776 6.47961L25.2768 6.46218ZM25.0225 4.70265L26.2678 4.59371L26.2503 4.39447L25.0051 4.50341L25.0225 4.70265ZM26.1594 4.5028L26.3229 6.37067L26.5221 6.35324L26.3587 4.48537L26.1594 4.5028ZM26.4312 6.46157L28.2991 6.29815L28.2816 6.09892L26.4138 6.26233L26.4312 6.46157ZM28.39 6.18982L28.2265 4.32195L28.0273 4.33939L28.1907 6.20725L28.39 6.18982ZM28.1356 4.43029L29.3809 4.32134L29.3634 4.12211L28.1182 4.23105L28.1356 4.43029ZM29.2725 4.23044L29.5449 7.34355L29.7441 7.32612L29.4718 4.21301L29.2725 4.23044ZM29.6358 7.23521L29.0132 7.28969L29.0306 7.48893L29.6532 7.43445L29.6358 7.23521ZM28.9223 7.39802L28.9768 8.02064L29.176 8.00321L29.1215 7.38059L28.9223 7.39802ZM29.0677 7.91231L25.9546 8.18467L25.972 8.38391L29.0851 8.11155L29.0677 7.91231ZM30.9442 7.84851L30.8446 7.85723L30.8533 7.95685L30.953 7.94813L30.9442 7.84851ZM30.8898 7.22589L30.8811 7.12627L30.7814 7.13499L30.7901 7.2346L30.8898 7.22589ZM31.5124 7.17142L31.5211 7.27104L31.6207 7.26232L31.612 7.1627L31.5124 7.17142ZM31.4034 5.92617L31.3947 5.82655L31.2951 5.83527L31.3038 5.93489L31.4034 5.92617ZM32.6487 5.81723L32.7483 5.80851L32.7396 5.70889L32.64 5.71761L32.6487 5.81723ZM32.7576 7.06247L32.7664 7.16209L32.866 7.15338L32.8573 7.05376L32.7576 7.06247ZM32.135 7.11694L32.1263 7.01733L32.0267 7.02604L32.0354 7.12566L32.135 7.11694ZM32.1895 7.73957L32.1982 7.83919L32.2978 7.83047L32.2891 7.73085L32.1895 7.73957ZM31.0439 7.8398L30.9894 7.21717L30.7901 7.2346L30.8446 7.85723L31.0439 7.8398ZM30.8985 7.32551L31.5211 7.27104L31.5037 7.0718L30.8811 7.12627L30.8985 7.32551ZM31.612 7.1627L31.5031 5.91746L31.3038 5.93489L31.4128 7.18013L31.612 7.1627ZM31.4122 6.02579L32.6574 5.91685L32.64 5.71761L31.3947 5.82655L31.4122 6.02579ZM32.5491 5.82594L32.658 7.07119L32.8573 7.05376L32.7483 5.80851L32.5491 5.82594ZM32.7489 6.96285L32.1263 7.01733L32.1437 7.21656L32.7664 7.16209L32.7489 6.96285ZM32.0354 7.12566L32.0899 7.74828L32.2891 7.73085L32.2346 7.10823L32.0354 7.12566ZM32.1808 7.63995L30.9355 7.74889L30.953 7.94813L32.1982 7.83919L32.1808 7.63995ZM40.2291 6.4088L40.1295 6.41752L40.1382 6.51714L40.2378 6.50842L40.2291 6.4088ZM39.8478 2.05045L39.8391 1.95083L39.7395 1.95955L39.7482 2.05917L39.8478 2.05045ZM43.5835 1.72362L43.6831 1.7149L43.6744 1.61528L43.5748 1.624L43.5835 1.72362ZM43.638 2.34624L43.5384 2.35496L43.5471 2.45457L43.6467 2.44586L43.638 2.34624ZM44.2606 2.29177L44.3602 2.28305L44.3515 2.18343L44.2519 2.19215L44.2606 2.29177ZM44.424 4.15963L44.4327 4.25925L44.5324 4.25054L44.5236 4.15092L44.424 4.15963ZM43.1788 4.26858L43.1701 4.16896L43.0705 4.17767L43.0792 4.27729L43.1788 4.26858ZM43.2333 4.8912L43.1336 4.89991L43.1424 4.99953L43.242 4.99082L43.2333 4.8912ZM43.8559 4.83673L43.9555 4.82801L43.9468 4.72839L43.8472 4.73711L43.8559 4.83673ZM43.9104 5.45935L43.8107 5.46806L43.8195 5.56768L43.9191 5.55897L43.9104 5.45935ZM44.533 5.40488L44.6326 5.39616L44.6239 5.29654L44.5243 5.30526L44.533 5.40488ZM44.5874 6.0275L44.5962 6.12712L44.6958 6.1184L44.6871 6.01878L44.5874 6.0275ZM42.7196 6.19091L42.62 6.19963L42.6287 6.29925L42.7283 6.29053L42.7196 6.19091ZM42.6651 5.56829L42.7647 5.55958L42.756 5.45996L42.6564 5.46867L42.6651 5.56829ZM42.0425 5.62277L41.9429 5.63148L41.9516 5.7311L42.0512 5.72238L42.0425 5.62277ZM41.988 5.00014L42.0876 4.99143L42.0789 4.89181L41.9793 4.90052L41.988 5.00014ZM41.3654 5.05462L41.3567 4.955L41.2571 4.96371L41.2658 5.06333L41.3654 5.05462ZM41.4743 6.29986L41.4831 6.39948L41.5827 6.39076L41.574 6.29114L41.4743 6.29986ZM41.3109 4.43199L41.2113 4.44071L41.22 4.54033L41.3196 4.53161L41.3109 4.43199ZM42.5562 4.32305L42.5649 4.42267L42.6645 4.41395L42.6558 4.31433L42.5562 4.32305ZM42.5017 3.70043L42.493 3.60081L42.3934 3.60952L42.4021 3.70914L42.5017 3.70043ZM43.1243 3.64596L43.133 3.74558L43.2326 3.73686L43.2239 3.63724L43.1243 3.64596ZM43.0154 2.40071L43.115 2.392L43.1063 2.29238L43.0067 2.30109L43.0154 2.40071ZM41.1475 2.56413L41.1388 2.46451L41.0392 2.47323L41.0479 2.57284L41.1475 2.56413ZM40.3287 6.40009L39.9474 2.04174L39.7482 2.05917L40.1295 6.41752L40.3287 6.40009ZM39.8565 2.15007L43.5922 1.82324L43.5748 1.624L39.8391 1.95083L39.8565 2.15007ZM43.4839 1.73233L43.5384 2.35496L43.7376 2.33752L43.6831 1.7149L43.4839 1.73233ZM43.6467 2.44586L44.2693 2.39139L44.2519 2.19215L43.6293 2.24662L43.6467 2.44586ZM44.161 2.30048L44.3244 4.16835L44.5236 4.15092L44.3602 2.28305L44.161 2.30048ZM44.4153 4.06001L43.1701 4.16896L43.1875 4.3682L44.4327 4.25925L44.4153 4.06001ZM43.0792 4.27729L43.1336 4.89991L43.3329 4.88248L43.2784 4.25986L43.0792 4.27729ZM43.242 4.99082L43.8646 4.93635L43.8472 4.73711L43.2245 4.79158L43.242 4.99082ZM43.7563 4.84544L43.8107 5.46806L44.01 5.45063L43.9555 4.82801L43.7563 4.84544ZM43.9191 5.55897L44.5417 5.5045L44.5243 5.30526L43.9016 5.35973L43.9191 5.55897ZM44.4334 5.41359L44.4878 6.03621L44.6871 6.01878L44.6326 5.39616L44.4334 5.41359ZM44.5787 5.92788L42.7109 6.0913L42.7283 6.29053L44.5962 6.12712L44.5787 5.92788ZM42.8192 6.1822L42.7647 5.55958L42.5655 5.57701L42.62 6.19963L42.8192 6.1822ZM42.6564 5.46867L42.0338 5.52315L42.0512 5.72238L42.6738 5.66791L42.6564 5.46867ZM42.1421 5.61405L42.0876 4.99143L41.8884 5.00886L41.9429 5.63148L42.1421 5.61405ZM41.9793 4.90052L41.3567 4.955L41.3741 5.15424L41.9967 5.09976L41.9793 4.90052ZM41.2658 5.06333L41.3747 6.30858L41.574 6.29114L41.465 5.0459L41.2658 5.06333ZM41.4656 6.20024L40.2204 6.30918L40.2378 6.50842L41.4831 6.39948L41.4656 6.20024ZM41.3196 4.53161L42.5649 4.42267L42.5474 4.22343L41.3022 4.33238L41.3196 4.53161ZM42.6558 4.31433L42.6013 3.69171L42.4021 3.70914L42.4565 4.33177L42.6558 4.31433ZM42.5104 3.80005L43.133 3.74558L43.1156 3.54634L42.493 3.60081L42.5104 3.80005ZM43.2239 3.63724L43.115 2.392L42.9158 2.40943L43.0247 3.65467L43.2239 3.63724ZM43.0067 2.30109L41.1388 2.46451L41.1562 2.66375L43.0241 2.50033L43.0067 2.30109ZM41.0479 2.57284L41.2113 4.44071L41.4105 4.42328L41.2471 2.55541L41.0479 2.57284ZM45.8327 5.91855L45.7331 5.92727L45.7418 6.02689L45.8414 6.01817L45.8327 5.91855ZM45.7782 5.29593L45.8778 5.28722L45.8691 5.1876L45.7695 5.19631L45.7782 5.29593ZM45.1556 5.3504L45.056 5.35912L45.0647 5.45874L45.1643 5.45002L45.1556 5.3504ZM44.9922 3.48254L44.9835 3.38292L44.8838 3.39163L44.8926 3.49125L44.9922 3.48254ZM45.6148 3.42807L45.6235 3.52769L45.7231 3.51897L45.7144 3.41935L45.6148 3.42807ZM45.5603 2.80544L45.5516 2.70582L45.452 2.71454L45.4607 2.81416L45.5603 2.80544ZM48.6734 2.53308L48.7731 2.52437L48.7643 2.42475L48.6647 2.43346L48.6734 2.53308ZM48.7279 3.1557L48.6283 3.16442L48.637 3.26404L48.7366 3.25532L48.7279 3.1557ZM49.3505 3.10123L49.4501 3.09252L49.4414 2.9929L49.3418 3.00161L49.3505 3.10123ZM49.4595 4.34648L49.4682 4.4461L49.5678 4.43738L49.5591 4.33776L49.4595 4.34648ZM46.3464 4.61884L46.3377 4.51922L46.238 4.52793L46.2467 4.62755L46.3464 4.61884ZM46.4008 5.24146L46.3012 5.25017L46.3099 5.34979L46.4096 5.34108L46.4008 5.24146ZM48.8913 5.02357L48.9909 5.01485L48.9822 4.91523L48.8826 4.92395L48.8913 5.02357ZM48.9458 5.64619L48.9545 5.74581L49.0541 5.7371L49.0454 5.63748L48.9458 5.64619ZM46.2919 3.99622L46.1923 4.00493L46.201 4.10455L46.3006 4.09584L46.2919 3.99622ZM48.1598 3.8328L48.1685 3.93242L48.2681 3.9237L48.2594 3.82408L48.1598 3.8328ZM48.1053 3.21018L48.2049 3.20146L48.1962 3.10184L48.0966 3.11056L48.1053 3.21018ZM46.2374 3.37359L46.2287 3.27397L46.1291 3.28269L46.1378 3.38231L46.2374 3.37359ZM45.9323 5.90984L45.8778 5.28722L45.6786 5.30465L45.7331 5.92727L45.9323 5.90984ZM45.7695 5.19631L45.1469 5.25078L45.1643 5.45002L45.7869 5.39555L45.7695 5.19631ZM45.2552 5.34169L45.0918 3.47382L44.8926 3.49125L45.056 5.35912L45.2552 5.34169ZM45.0009 3.58216L45.6235 3.52769L45.6061 3.32845L44.9835 3.38292L45.0009 3.58216ZM45.7144 3.41935L45.6599 2.79673L45.4607 2.81416L45.5152 3.43678L45.7144 3.41935ZM45.569 2.90506L48.6822 2.6327L48.6647 2.43346L45.5516 2.70582L45.569 2.90506ZM48.5738 2.5418L48.6283 3.16442L48.8275 3.14699L48.7731 2.52437L48.5738 2.5418ZM48.7366 3.25532L49.3592 3.20085L49.3418 3.00161L48.7192 3.05609L48.7366 3.25532ZM49.2509 3.10995L49.3599 4.35519L49.5591 4.33776L49.4501 3.09252L49.2509 3.10995ZM49.4508 4.24686L46.3377 4.51922L46.3551 4.71846L49.4682 4.4461L49.4508 4.24686ZM46.2467 4.62755L46.3012 5.25017L46.5005 5.23274L46.446 4.61012L46.2467 4.62755ZM46.4096 5.34108L48.9 5.12319L48.8826 4.92395L46.3921 5.14184L46.4096 5.34108ZM48.7917 5.03229L48.8462 5.65491L49.0454 5.63748L48.9909 5.01485L48.7917 5.03229ZM48.9371 5.54657L45.824 5.81893L45.8414 6.01817L48.9545 5.74581L48.9371 5.54657ZM46.3006 4.09584L48.1685 3.93242L48.151 3.73318L46.2832 3.8966L46.3006 4.09584ZM48.2594 3.82408L48.2049 3.20146L48.0057 3.21889L48.0601 3.84151L48.2594 3.82408ZM48.0966 3.11056L46.2287 3.27397L46.2461 3.47321L48.114 3.3098L48.0966 3.11056ZM46.1378 3.38231L46.1923 4.00493L46.3915 3.9875L46.337 3.36488L46.1378 3.38231ZM50.8137 5.48277L50.714 5.49149L50.7228 5.59111L50.8224 5.58239L50.8137 5.48277ZM50.7592 4.86015L50.8588 4.85144L50.8501 4.75182L50.7505 4.76053L50.7592 4.86015ZM50.1366 4.91463L50.037 4.92334L50.0457 5.02296L50.1453 5.01424L50.1366 4.91463ZM50.0821 4.292L50.0734 4.19238L49.9738 4.2011L49.9825 4.30072L50.0821 4.292ZM50.7047 4.23753L50.7134 4.33715L50.8131 4.32844L50.8043 4.22882L50.7047 4.23753ZM50.6502 3.61491L50.6415 3.51529L50.5419 3.52401L50.5506 3.62362L50.6502 3.61491ZM53.1407 3.39702L53.1494 3.49664L53.2491 3.48792L53.2404 3.3883L53.1407 3.39702ZM53.0863 2.7744L53.1859 2.76568L53.1772 2.66606L53.0775 2.67478L53.0863 2.7744ZM50.5958 2.99229L50.4962 3.001L50.5049 3.10062L50.6045 3.09191L50.5958 2.99229ZM50.5413 2.36967L50.5326 2.27005L50.433 2.27876L50.4417 2.37838L50.5413 2.36967ZM53.6544 2.0973L53.754 2.08859L53.7453 1.98897L53.6457 1.99768L53.6544 2.0973ZM53.7089 2.71993L53.6093 2.72864L53.618 2.82826L53.7176 2.81955L53.7089 2.71993ZM54.3315 2.66545L54.4311 2.65674L54.4224 2.55712L54.3228 2.56583L54.3315 2.66545ZM54.5494 5.15594L54.5581 5.25556L54.6577 5.24684L54.649 5.14722L54.5494 5.15594ZM51.3818 4.80568L51.2822 4.8144L51.2909 4.91402L51.3905 4.9053L51.3818 4.80568ZM53.2497 4.64226L53.2584 4.74188L53.358 4.73317L53.3493 4.63355L53.2497 4.64226ZM53.1952 4.01964L53.2948 4.01093L53.2861 3.91131L53.1865 3.92002L53.1952 4.01964ZM51.3273 4.18306L51.3186 4.08344L51.219 4.09215L51.2277 4.19177L51.3273 4.18306ZM50.9133 5.47406L50.8588 4.85144L50.6596 4.86887L50.714 5.49149L50.9133 5.47406ZM50.7505 4.76053L50.1279 4.81501L50.1453 5.01424L50.7679 4.95977L50.7505 4.76053ZM50.2362 4.90591L50.1817 4.28329L49.9825 4.30072L50.037 4.92334L50.2362 4.90591ZM50.0908 4.39162L50.7134 4.33715L50.696 4.13791L50.0734 4.19238L50.0908 4.39162ZM50.8043 4.22882L50.7499 3.60619L50.5506 3.62362L50.6051 4.24625L50.8043 4.22882ZM50.659 3.71453L53.1494 3.49664L53.132 3.2974L50.6415 3.51529L50.659 3.71453ZM53.2404 3.3883L53.1859 2.76568L52.9866 2.78311L53.0411 3.40574L53.2404 3.3883ZM53.0775 2.67478L50.5871 2.89267L50.6045 3.09191L53.095 2.87402L53.0775 2.67478ZM50.6954 2.98357L50.6409 2.36095L50.4417 2.37838L50.4962 3.001L50.6954 2.98357ZM50.55 2.46929L53.6631 2.19692L53.6457 1.99768L50.5326 2.27005L50.55 2.46929ZM53.5548 2.10602L53.6093 2.72864L53.8085 2.71121L53.754 2.08859L53.5548 2.10602ZM53.7176 2.81955L54.3402 2.76507L54.3228 2.56583L53.7002 2.62031L53.7176 2.81955ZM54.2319 2.67417L54.4498 5.16466L54.649 5.14722L54.4311 2.65674L54.2319 2.67417ZM54.5407 5.05632L50.8049 5.38316L50.8224 5.58239L54.5581 5.25556L54.5407 5.05632ZM51.3905 4.9053L53.2584 4.74188L53.241 4.54264L51.3731 4.70606L51.3905 4.9053ZM53.3493 4.63355L53.2948 4.01093L53.0956 4.02836L53.1501 4.65098L53.3493 4.63355ZM53.1865 3.92002L51.3186 4.08344L51.3361 4.28268L53.2039 4.11926L53.1865 3.92002ZM51.2277 4.19177L51.2822 4.8144L51.4814 4.79696L51.427 4.17434L51.2277 4.19177ZM55.7946 5.047L55.695 5.05571L55.7037 5.15533L55.8034 5.14662L55.7946 5.047ZM55.7402 4.42437L55.7314 4.32475L55.6318 4.33347L55.6405 4.43309L55.7402 4.42437ZM56.9854 4.31543L56.9941 4.41505L57.0937 4.40633L57.085 4.30671L56.9854 4.31543ZM56.713 1.20232L56.8127 1.19361L56.8039 1.09399L56.7043 1.1027L56.713 1.20232ZM56.0904 1.25679L55.9908 1.26551L55.9995 1.36513L56.0991 1.35641L56.0904 1.25679ZM56.036 0.634172L56.0272 0.534552L55.9276 0.543267L55.9363 0.642887L56.036 0.634172ZM57.9038 0.470754L58.0034 0.462039L57.9947 0.36242L57.8951 0.371135L57.9038 0.470754ZM58.2307 4.20648L58.131 4.2152L58.1397 4.31482L58.2394 4.3061L58.2307 4.20648ZM59.4759 4.09754L59.5755 4.08882L59.5668 3.98921L59.4672 3.99792L59.4759 4.09754ZM59.5304 4.72016L59.5391 4.81978L59.6387 4.81107L59.63 4.71145L59.5304 4.72016ZM55.8943 5.03828L55.8398 4.41566L55.6405 4.43309L55.695 5.05571L55.8943 5.03828ZM55.7489 4.52399L56.9941 4.41505L56.9767 4.21581L55.7314 4.32475L55.7489 4.52399ZM57.085 4.30671L56.8127 1.19361L56.6134 1.21104L56.8858 4.32414L57.085 4.30671ZM56.7043 1.1027L56.0817 1.15717L56.0991 1.35641L56.7218 1.30194L56.7043 1.1027ZM56.19 1.24808L56.1356 0.625456L55.9363 0.642887L55.9908 1.26551L56.19 1.24808ZM56.0447 0.733791L57.9125 0.570374L57.8951 0.371135L56.0272 0.534552L56.0447 0.733791ZM57.8042 0.47947L58.131 4.2152L58.3303 4.19777L58.0034 0.462039L57.8042 0.47947ZM58.2394 4.3061L59.4846 4.19716L59.4672 3.99792L58.2219 4.10687L58.2394 4.3061ZM59.3763 4.10626L59.4307 4.72888L59.63 4.71145L59.5755 4.08882L59.3763 4.10626ZM59.5217 4.62054L55.7859 4.94738L55.8034 5.14662L59.5391 4.81978L59.5217 4.62054ZM60.7756 4.61122L60.676 4.61993L60.6847 4.71955L60.7843 4.71084L60.7756 4.61122ZM60.7211 3.9886L60.7124 3.88898L60.6128 3.89769L60.6215 3.99731L60.7211 3.9886ZM61.9664 3.87965L61.9751 3.97927L62.0747 3.97055L62.066 3.87094L61.9664 3.87965ZM61.694 0.766542L61.7936 0.757826L61.7849 0.658207L61.6853 0.666922L61.694 0.766542ZM61.0714 0.821014L60.9718 0.82973L60.9805 0.929349L61.0801 0.920634L61.0714 0.821014ZM61.0169 0.198393L61.0082 0.0987733L60.9086 0.107489L60.9173 0.207108L61.0169 0.198393ZM62.8848 0.0349758L62.9844 0.0262603L62.9757 -0.0733592L62.8761 -0.0646437L62.8848 0.0349758ZM63.2116 3.77071L63.112 3.77942L63.1207 3.87904L63.2203 3.87033L63.2116 3.77071ZM64.4569 3.66176L64.5565 3.65305L64.5478 3.55343L64.4482 3.56214L64.4569 3.66176ZM64.5113 4.28438L64.5201 4.384L64.6197 4.37529L64.611 4.27567L64.5113 4.28438ZM60.8752 4.6025L60.8208 3.97988L60.6215 3.99731L60.676 4.61993L60.8752 4.6025ZM60.7299 4.08821L61.9751 3.97927L61.9577 3.78003L60.7124 3.88898L60.7299 4.08821ZM62.066 3.87094L61.7936 0.757826L61.5944 0.775257L61.8668 3.88837L62.066 3.87094ZM61.6853 0.666922L61.0627 0.721395L61.0801 0.920634L61.7027 0.866161L61.6853 0.666922ZM61.171 0.812299L61.1165 0.189677L60.9173 0.207108L60.9718 0.82973L61.171 0.812299ZM61.0256 0.298012L62.8935 0.134595L62.8761 -0.0646437L61.0082 0.0987733L61.0256 0.298012ZM62.7852 0.0436912L63.112 3.77942L63.3112 3.76199L62.9844 0.0262603L62.7852 0.0436912ZM63.2203 3.87033L64.4656 3.76138L64.4482 3.56214L63.2029 3.67109L63.2203 3.87033ZM64.3573 3.67048L64.4117 4.2931L64.611 4.27567L64.5565 3.65305L64.3573 3.67048ZM64.5026 4.18476L60.7669 4.5116L60.7843 4.71084L64.5201 4.384L64.5026 4.18476ZM65.8111 4.79806L65.7114 4.80678L65.7202 4.90639L65.8198 4.89768L65.8111 4.79806ZM65.7566 4.17544L65.7479 4.07582L65.6483 4.08453L65.657 4.18415L65.7566 4.17544ZM68.2471 3.95755L68.2558 4.05717L68.3554 4.04845L68.3467 3.94883L68.2471 3.95755ZM68.1926 3.33493L68.2922 3.32621L68.2835 3.22659L68.1839 3.23531L68.1926 3.33493ZM65.7021 3.55282L65.6025 3.56153L65.6112 3.66115L65.7108 3.65244L65.7021 3.55282ZM65.6476 2.93019L65.7473 2.92148L65.7385 2.82186L65.6389 2.83058L65.6476 2.93019ZM65.025 2.98467L64.9254 2.99338L64.9341 3.093L65.0337 3.08429L65.025 2.98467ZM64.8616 1.1168L64.8529 1.01718L64.7533 1.0259L64.762 1.12552L64.8616 1.1168ZM66.1068 1.00786L66.2065 0.999142L66.1977 0.899522L66.0981 0.908238L66.1068 1.00786ZM66.2703 2.87572L66.1706 2.88444L66.1794 2.98406L66.279 2.97534L66.2703 2.87572ZM68.1381 2.71231L68.1468 2.81192L68.2465 2.80321L68.2377 2.70359L68.1381 2.71231ZM67.9747 0.84444L67.966 0.744821L67.8664 0.753536L67.8751 0.853156L67.9747 0.84444ZM69.22 0.735496L69.3196 0.72678L69.3109 0.627161L69.2112 0.635876L69.22 0.735496ZM69.4923 3.8486L69.501 3.94822L69.6006 3.93951L69.5919 3.83989L69.4923 3.8486ZM68.8697 3.90308L68.861 3.80346L68.7614 3.81217L68.7701 3.91179L68.8697 3.90308ZM68.9242 4.5257L68.9329 4.62532L69.0325 4.6166L69.0238 4.51698L68.9242 4.5257ZM65.9107 4.78934L65.8562 4.16672L65.657 4.18415L65.7114 4.80678L65.9107 4.78934ZM65.7653 4.27506L68.2558 4.05717L68.2384 3.85793L65.7479 4.07582L65.7653 4.27506ZM68.3467 3.94883L68.2922 3.32621L68.093 3.34364L68.1475 3.96626L68.3467 3.94883ZM68.1839 3.23531L65.6934 3.4532L65.7108 3.65244L68.2013 3.43455L68.1839 3.23531ZM65.8017 3.5441L65.7473 2.92148L65.548 2.93891L65.6025 3.56153L65.8017 3.5441ZM65.6389 2.83058L65.0163 2.88505L65.0337 3.08429L65.6564 3.02981L65.6389 2.83058ZM65.1246 2.97595L64.9612 1.10809L64.762 1.12552L64.9254 2.99338L65.1246 2.97595ZM64.8703 1.21642L66.1156 1.10748L66.0981 0.908238L64.8529 1.01718L64.8703 1.21642ZM66.0072 1.01657L66.1706 2.88444L66.3699 2.86701L66.2065 0.999142L66.0072 1.01657ZM66.279 2.97534L68.1468 2.81192L68.1294 2.61269L66.2615 2.7761L66.279 2.97534ZM68.2377 2.70359L68.0743 0.835725L67.8751 0.853156L68.0385 2.72102L68.2377 2.70359ZM67.9834 0.94406L69.2287 0.835115L69.2112 0.635876L67.966 0.744821L67.9834 0.94406ZM69.1203 0.744211L69.3927 3.85732L69.5919 3.83989L69.3196 0.72678L69.1203 0.744211ZM69.4836 3.74898L68.861 3.80346L68.8784 4.0027L69.501 3.94822L69.4836 3.74898ZM68.7701 3.91179L68.8245 4.53441L69.0238 4.51698L68.9693 3.89436L68.7701 3.91179ZM68.9155 4.42608L65.8023 4.69844L65.8198 4.89768L68.9329 4.62532L68.9155 4.42608ZM71.3602 3.68519L71.2606 3.6939L71.2693 3.79352L71.3689 3.78481L71.3602 3.68519ZM71.2512 2.43994L71.2425 2.34032L71.1429 2.34904L71.1516 2.44866L71.2512 2.43994ZM72.4965 2.331L72.5961 2.32228L72.5874 2.22266L72.4878 2.23138L72.4965 2.331ZM72.6054 3.57624L72.6141 3.67586L72.7138 3.66715L72.705 3.56753L72.6054 3.57624ZM71.4598 3.67647L71.3509 2.43123L71.1516 2.44866L71.2606 3.6939L71.4598 3.67647ZM71.26 2.53956L72.5052 2.43062L72.4878 2.23138L71.2425 2.34032L71.26 2.53956ZM72.3969 2.33971L72.5058 3.58496L72.705 3.56753L72.5961 2.32228L72.3969 2.33971ZM72.5967 3.47662L71.3515 3.58557L71.3689 3.78481L72.6141 3.67586L72.5967 3.47662Z" fill="black"/>
</g>
<defs>
<clipPath id="clip0_5_48">
<rect width="75" height="10" fill="#6c88dd"/>
</clipPath>
</defs>
</svg>
