<svg width="23" height="9" viewBox="0 0 23 9" fill="none" xmlns="http://www.w3.org/2000/svg">
<rect width="23" height="9" fill="white"/>
<rect x="0.5" y="0.5" width="22" height="8" fill="#71D7AC" stroke="black"/>
<rect x="2" y="5" width="3" height="1" transform="rotate(-90 2 5)" fill="#E3E745"/>
<rect x="7" y="7" width="5" height="1" transform="rotate(-90 7 7)" fill="#E3E745"/>
<rect x="12" y="7" width="5" height="1" transform="rotate(-90 12 7)" fill="#E3E745"/>
<rect x="10" y="7" width="5" height="1" transform="rotate(-90 10 7)" fill="#E3E745"/>
<rect x="4" y="7" width="3" height="1" transform="rotate(-90 4 7)" fill="#E3E745"/>
<rect x="2" y="4" width="3" height="1" fill="#E3E745"/>
<rect x="2" y="4" width="3" height="1" fill="#E3E745"/>
<rect x="2" y="6" width="3" height="1" fill="#E3E745"/>
<rect x="2" y="2" width="3" height="1" fill="#E3E745"/>
<rect x="6" y="2" width="3" height="1" fill="#E3E745"/>
<rect x="19" y="7" width="5" height="1" transform="rotate(-90 19 7)" fill="#E3E745"/>
<rect x="18" y="2" width="3" height="1" fill="#E3E745"/>
<rect x="10" y="4" width="3" height="1" fill="#E3E745"/>
<rect x="10" y="2" width="3" height="1" fill="#E3E745"/>
<rect x="16" y="4" width="2" height="1" transform="rotate(-90 16 4)" fill="#E3E745"/>
<rect x="16" y="7" width="2" height="1" transform="rotate(-90 16 7)" fill="#E3E745"/>
<rect x="14" y="7" width="5" height="1" transform="rotate(-90 14 7)" fill="#E3E745"/>
<rect x="14" y="4" width="2" height="1" fill="#E3E745"/>
<rect x="14" y="2" width="3" height="1" fill="#E3E745"/>
</svg>
